<?xml version="1.0" encoding="UTF-8"?>
<svg xmlns="http://www.w3.org/2000/svg" version="1.1" viewBox="0 0 246.5 92.5">
  <defs>
    <style>
      .cls-1 {
        fill: #009cff;
      }

      .cls-2 {
        fill: #fff;
      }
    </style>
  </defs>
  <!-- Generator: Adobe Illustrator 28.6.0, SVG Export Plug-In . SVG Version: 1.2.0 Build 709)  -->
  <g>
    <g id="Layer_1">
      <path class="cls-1" d="M46.2.2C20.8.2.1,20.8.1,46.3s20.7,46.1,46.1,46.1,46.1-20.7,46.1-46.1S71.7.2,46.2.2ZM85,46.3c0,21.4-17.4,38.8-38.8,38.8S7.4,67.6,7.4,46.3,24.9,7.5,46.2,7.5s38.8,17.4,38.8,38.8Z"/>
      <g>
        <path class="cls-2" d="M32.2,39.3c-1.4-.5-3.1-.8-5.2-.8h-13.4c-.9,0-1.4.5-1.4,1.4v15.9c0,.8.5,1.1.8,1.3.1,0,.4.1,1.5.1s1.4-.5,1.4-1.4v-5.1l14.9,6.4c.3,0,.7.1,1.3.1,1.4,0,2.2-.4,2.2-1.3s-.3-1-1-1.3l-10.2-4.3h4.5c1.8,0,3.4-.3,4.8-.9,1.8-.8,2.7-2.1,2.7-3.8v-2.2c0-1.8-1-3.2-3-4ZM31.5,43.2v2.3c0,1-1.3,1.5-3.9,1.5h-11.6v-5.4h11c3,0,4.5.5,4.5,1.6Z"/>
        <path class="cls-2" d="M56,49.4c.7,0,1.4-.3,1.4-1.7s-.5-1.5-1.4-1.5h-15.9v-3c0-1.2,1.8-1.8,5.3-1.8s.3,0,.5,0c.2,0,.4,0,.6,0,0,0,.1,0,.2,0h.9c.9,0,1.4-.5,1.4-1.4,0-1.4-.7-1.7-1.4-1.7h-3.3c-3.3,0-5.7.8-7,2.4-.6.7-.9,1.6-.9,2.5v9.1c0,1.7.9,3,2.8,3.8,1.5.6,3.1.9,4.9.9h11.9c.6,0,1.4-.3,1.4-1.8s-.5-1.4-1.4-1.4h-11.8c-2.7,0-4.1-.6-4.1-1.7v-2.8h15.8Z"/>
        <path class="cls-2" d="M80.7,54.7l-8.3-7.1,8-6.8c.4-.4.7-.8.7-1.2s-.3-1.2-1.5-1.2-1.7.2-1.9.3l-7.9,6.7-8-6.7c-.2-.2-.5-.3-.9-.3-1.1,0-1.4,0-1.5,0-.9.1-1,.7-1,1.2s.2.8.7,1.2l8.1,6.8-8.4,7.1c-.4.4-.7.8-.7,1.2s.3,1.2,2,1.2,1.2-.1,1.5-.3l8.3-6.9,8.2,6.9c.3.3.8.4,1.4.4s.8,0,1.3-.3c.6-.2.8-.6.8-1.1s-.2-.8-.7-1.2Z"/>
      </g>
      <g>
        <path class="cls-2" d="M109.6,44.4h-3.6c-.2-1.8-1.2-2.9-3-2.9s-2.5.7-2.5,2.1.9,2.2,3.7,2.9c3.9.9,5.6,2.7,5.6,5.5s-3,5.2-6.5,5.2-6.9-1.9-7.3-5.5h3.6c.4,1.9,1.9,2.9,3.6,2.9s2.9-.9,2.9-2.2-.9-2.3-3.5-2.9c-3.6-.9-5.8-2.1-5.8-5.3s2.9-5.1,6.3-5.1,6.1,2.4,6.5,5.5Z"/>
        <path class="cls-2" d="M115.8,40.1c0,1.1-.8,1.9-1.9,1.9s-1.9-.7-1.9-1.9.8-1.9,1.9-1.9,1.9.8,1.9,1.9ZM112.1,56.8v-13.5h3.5v13.5h-3.5Z"/>
        <path class="cls-2" d="M139,48.7v8.1h-3.5v-7c0-.8,0-1.5-.1-2.2-.2-1.4-.9-2.2-2.3-2.2s-2.5,1.3-2.5,4.5v6.9h-3.5v-7c0-.8,0-1.5-.1-2.2-.2-1.4-1-2.2-2.3-2.2s-2.4,1.3-2.4,4.5v6.9h-3.5v-13.5h3.5v2.1l1-1.6c.8-.5,1.7-.8,2.9-.8,2.2,0,3.6,1.1,4.1,2.6l1.3-1.8c.8-.5,1.7-.8,2.9-.8,2.6,0,4,1.5,4.3,3.4.1.7.1,1.4.1,2.5Z"/>
        <path class="cls-2" d="M154.6,56.8h-3.5v-2.3l-1,1.7c-1,.7-2,.9-3.3.9-2.8,0-4.5-1.6-4.8-3.4-.1-.7-.1-1.4-.1-2.5v-8h3.5v7.2c0,.4,0,1.2.1,1.9.2,1.4,1,2.3,2.6,2.3s3-1.4,3-4.5v-6.9h3.5v13.5Z"/>
        <path class="cls-2" d="M161.2,52.4c0,.5,0,.9,0,1.2,0,.7.4.9,1.6.8v2.4c-.7,0-1.4.1-2.2.1-1.7,0-2.8-.6-2.9-2.4,0-.6,0-1.2,0-2.1v-14.3h3.5v14.2Z"/>
        <path class="cls-2" d="M172.8,54.8l-.7,1.4c-.9.6-2.1.9-3.4.9-2.3,0-4.3-1.4-4.3-3.9s2.5-4.6,7.4-4.6h.9v-.3c0-.4,0-.8,0-1.3-.1-.9-.7-1.6-2.1-1.6s-2.2.8-2.3,2.3h-3.4c.1-3,2.6-4.7,5.8-4.7s5.2,1.7,5.4,4c0,.6,0,1.3,0,2.1v4.4c0,1,0,1.9.3,3.4h-3.4l-.3-2ZM172.8,51.8v-1.1c-2.8-.2-4.7.4-4.7,2.2s.8,1.8,2.1,1.8,2.6-1,2.6-2.9Z"/>
        <path class="cls-2" d="M183.7,51.9c0,.5,0,.8,0,1.2.1,1.3.6,1.6,2.5,1.5v2.3c-.8.1-1.5.2-2.3.2-2.6,0-3.6-.9-3.7-2.8,0-.6,0-1.2,0-2v-6.7h-2v-2.3h2v-3.3h3.5v3.3h2.8v2.3h-2.8v6.2Z"/>
        <path class="cls-2" d="M192.4,40.1c0,1.1-.8,1.9-1.9,1.9s-1.9-.7-1.9-1.9.8-1.9,1.9-1.9,1.9.8,1.9,1.9ZM188.7,56.8v-13.5h3.5v13.5h-3.5Z"/>
        <path class="cls-2" d="M208.6,50c0,4.1-2.5,7.1-7,7.1s-7-3-7-7.1,2.5-7.1,7-7.1,7,3,7,7.1ZM204.9,50c0-2.9-1.3-4.6-3.4-4.6s-3.4,1.7-3.4,4.6,1.3,4.6,3.4,4.6,3.4-1.8,3.4-4.6Z"/>
        <path class="cls-2" d="M223.5,49.2v7.6h-3.5v-7.1c0-.6,0-1.2,0-1.9-.1-1.4-.9-2.4-2.6-2.4s-3,1.5-3,5.2v6.2h-3.5v-13.5h3.5v2.2l1-1.6c1-.7,2-.9,3.3-.9,2.9,0,4.5,1.4,4.8,3.8,0,.7.1,1.4.1,2.5Z"/>
        <path class="cls-2" d="M236.8,47.2h-3.5c-.2-1.2-.9-2-2.1-2s-1.6.6-1.6,1.4.8,1.5,3.1,2.1c2.8.7,4.4,1.8,4.4,4.3s-2.5,4-5.6,4-5.6-1.4-6-4.5h3.5c.3,1.5,1.3,2.2,2.5,2.2s2-.5,2-1.5-.9-1.6-3.2-2.2c-2.5-.6-4.2-1.7-4.2-4.1s2.1-4.2,5.4-4.2,5.1,1.8,5.4,4.3Z"/>
        <path class="cls-1" d="M245.8,54c0,1.9-1.3,3.3-3.3,3.3s-3.3-1.4-3.3-3.3,1.3-3.3,3.3-3.3,3.3,1.4,3.3,3.3Z"/>
      </g>
    </g>
  </g>
</svg>